# xmcd
#
# Track frame offsets: 
#        150
#        30187
#        52725
#        84025
#        102954
#        134247
#        151042
#        173247
#        193832
#        214170
#        228995
#        257465
#        297405
#        316044
#        332982
#
# Disc length: 4737 seconds
#
# Revision: 2
# Processed by: cddbd v1.5.2PL0 Copyright (c) Steve Scherf et al.
# Submitted via: ExactAudioCopy v1.0b3
#
DISCID=c3127f0f
DTITLE=Various Artist - Svensk jazzhistoria. Vol. 10 - Swedish jazz 1
DTITLE=965-1969 - Watch out!
DYEAR=2005
DGENRE=Jazz
TTITLE0=Lennart Åberg and Jan Johanssons trio - Willow weep for me
TTITLE1=Radiojazzgruppen - Fem spelor
TTITLE2=Radiojazzgruppen - Go go go
TTITLE3=Putte Wickman och Radiojazzgruppen - Planten un Blomen
TTITLE4=Sven Hessle and Co - Grekisk rapsodi
TTITLE5=Bengt "Frippe" Nordström - Solo för sopransax
TTITLE6=Don Cherry quartet - Brotherhood Suite
TTITLE7=Hansson and Karlsson - Namnlös
TTITLE8=Roland Keijsers kvartet - En solig dag på landet
TTITLE9=Red Michell trio - Pojken i grottan
TTITLE10=Gunnar Lindgren In The Opposite Corner - Improvisationer över
TTITLE10=ett trema tillägnat Josef Suk
TTITLE11=Lars Sjöstens oktett - Gröndal
TTITLE12=Kjell Öhman - Summerwind
TTITLE13=Ove Linds sextett - Rachel's dream
TTITLE14=Rolf Ericsons storband - The Swinger
EXTD=YEAR: 1968
EXTT0=
EXTT1=
EXTT2=
EXTT3=
EXTT4=
EXTT5=
EXTT6=
EXTT7=
EXTT8=
EXTT9=
EXTT10=
EXTT11=
EXTT12=
EXTT13=
EXTT14=
PLAYORDER=
